<?xml version="1.0" standalone="no"?>
<!DOCTYPE svg PUBLIC "-//W3C//DTD SVG 20010904//EN"
 "http://www.w3.org/TR/2001/REC-SVG-20010904/DTD/svg10.dtd">
<svg version="1.0" xmlns="http://www.w3.org/2000/svg"
 width="3843.000000pt" height="3843.000000pt" viewBox="0 0 3843.000000 3843.000000"
 preserveAspectRatio="xMidYMid meet">
<metadata>
Created by potrace 1.14, written by Peter Selinger 2001-2017
</metadata>
<g transform="translate(0.000000,3843.000000) scale(0.100000,-0.100000)"
fill="#000000" stroke="none">
<path d="M5117 23844 c-1 -1 -57 -5 -124 -8 -67 -4 -128 -8 -135 -10 -7 -3
-49 -7 -93 -11 -86 -6 -174 -18 -300 -40 -44 -8 -96 -17 -115 -20 -19 -3 -73
-15 -120 -26 -47 -11 -96 -23 -110 -25 -121 -23 -472 -136 -685 -222 -211 -85
-497 -226 -643 -319 -29 -18 -55 -33 -57 -33 -24 0 -461 -309 -574 -406 -19
-16 -71 -60 -115 -98 -118 -101 -416 -404 -527 -536 -419 -501 -726 -1051
-918 -1645 -66 -206 -86 -273 -117 -407 -2 -10 -6 -28 -9 -40 -7 -28 -25 -114
-31 -148 -19 -101 -34 -192 -39 -230 -3 -25 -8 -52 -10 -60 -2 -8 -7 -46 -10
-85 -3 -38 -8 -83 -10 -100 -2 -16 -7 -79 -11 -140 -10 -138 -12 -3824 -2
-3885 4 -25 10 -56 13 -70 3 -14 8 -35 11 -48 2 -13 16 -53 30 -90 128 -342
434 -582 799 -628 65 -9 534 -11 547 -3 6 4 10 811 12 2250 1 1234 5 2255 8
2269 4 14 9 54 13 90 83 855 559 1688 1273 2224 230 173 533 340 795 437 158
59 391 125 507 144 19 3 42 8 50 10 18 5 60 12 120 20 25 3 61 8 80 10 96 13
232 20 395 20 209 -1 278 -16 380 -84 125 -82 193 -171 241 -311 18 -52 19
-105 19 -1130 0 -1059 -2 -1146 -30 -1325 -8 -49 -17 -108 -21 -130 -26 -173
-130 -512 -216 -705 -88 -196 -232 -449 -340 -595 -454 -612 -1060 -1029
-1780 -1226 -104 -28 -341 -75 -423 -84 -130 -14 -250 -24 -311 -24 l-42 -1 0
-926 -1 -925 77 6 c42 3 90 8 107 10 16 3 53 7 80 10 28 3 77 10 110 15 33 5
77 12 99 16 21 3 48 8 60 10 11 2 35 7 51 10 17 3 58 11 91 19 34 8 73 16 85
19 48 9 186 45 269 69 700 207 1329 554 1875 1031 97 85 379 367 456 456 395
457 686 936 894 1475 89 228 167 484 211 689 9 39 17 80 20 91 10 48 44 241
49 283 4 26 8 54 11 62 2 8 6 45 9 82 3 36 8 81 10 100 17 118 20 441 20 2138
0 1548 -2 1905 -13 1950 -75 306 -239 523 -514 678 -43 24 -197 78 -248 87
-19 3 -44 9 -55 12 -16 5 -1122 12 -1128 7z"/>
<path d="M26140 20480 l0 -2680 518 0 517 0 0 875 0 875 106 0 107 0 169 -227
c236 -316 786 -1055 977 -1310 l158 -213 610 0 c487 0 608 3 601 13 -6 6 -248
329 -539 717 -290 388 -532 710 -536 715 -10 11 -418 556 -446 594 -9 13 -27
36 -40 51 l-22 28 27 33 c16 19 36 43 45 54 26 31 227 276 263 320 18 22 82
99 142 171 59 72 185 225 280 340 207 252 196 238 328 399 59 72 122 148 140
170 19 22 81 99 140 170 59 72 114 139 123 150 48 58 100 53 -558 53 l-600 0
-35 -41 c-19 -23 -118 -145 -221 -272 -102 -126 -201 -248 -219 -270 -18 -22
-106 -130 -195 -240 -89 -110 -173 -213 -186 -230 -14 -16 -109 -134 -212
-262 l-187 -232 -110 2 -110 2 0 1463 0 1462 -517 0 -518 0 0 -2680z"/>
<path d="M30410 23153 c-1 -11 -1 -5325 0 -5340 0 -10 110 -13 518 -13 l517 0
-1 875 -1 875 106 0 107 0 264 -355 c327 -439 516 -692 541 -725 11 -14 127
-170 259 -347 l240 -323 611 0 610 0 -25 33 c-88 116 -795 1059 -811 1082 -11
15 -29 39 -41 54 -11 14 -177 234 -368 489 l-347 463 47 57 c26 31 52 62 58
67 6 6 24 28 40 50 17 22 33 42 36 45 4 3 80 95 170 205 91 110 167 202 170
205 3 3 21 25 40 50 19 25 41 51 48 59 7 8 39 46 70 85 31 39 59 73 62 76 7 6
173 206 246 296 99 122 418 509 423 514 3 3 32 38 64 78 l58 73 -603 -2 -603
-2 -190 -235 c-104 -129 -194 -240 -200 -246 -5 -6 -37 -45 -70 -86 -33 -41
-68 -84 -77 -95 -9 -11 -108 -132 -219 -270 -219 -270 -287 -354 -417 -512
l-84 -103 -107 0 -108 0 -1 1448 c0 796 -1 1455 -1 1465 -1 16 -33 17 -516 17
-283 0 -515 -3 -515 -7z"/>
<path d="M9411 22978 c-18 -6 -19 -96 -19 -2592 l0 -2586 527 0 526 0 -1 777
-1 778 581 1 c529 0 801 6 837 18 8 3 39 7 69 10 159 16 357 65 513 127 428
171 703 500 818 979 16 67 37 205 45 295 13 155 6 764 -10 865 -2 14 -8 48
-12 75 -4 28 -8 52 -9 55 0 3 -5 23 -10 45 -4 22 -9 45 -10 50 -11 47 -53 171
-81 238 -93 221 -239 409 -427 548 -102 76 -332 188 -442 215 -5 2 -63 16
-128 33 -64 16 -139 32 -166 35 -27 3 -59 7 -72 10 -32 7 -118 15 -244 22
-140 9 -2262 11 -2284 2z m2209 -872 c204 -28 334 -86 443 -200 96 -99 168
-274 182 -440 7 -82 7 -542 0 -592 -22 -149 -57 -255 -117 -350 -107 -171
-295 -268 -563 -292 -38 -3 -306 -6 -595 -6 l-525 -1 -3 935 c-1 514 0 940 2
945 4 12 1088 13 1176 1z"/>
<path d="M23348 21885 c-2 -1 -46 -5 -98 -9 -53 -3 -120 -10 -150 -15 -30 -6
-71 -12 -90 -15 -148 -21 -377 -94 -515 -163 -81 -41 -222 -126 -235 -142 -3
-3 -30 -26 -60 -51 -230 -189 -422 -509 -495 -826 -60 -264 -69 -369 -69 -874
0 -349 7 -563 19 -610 2 -8 7 -40 10 -70 27 -222 129 -511 244 -690 177 -276
412 -466 724 -587 104 -40 326 -98 412 -108 32 -3 62 -8 65 -10 29 -18 535
-27 695 -13 140 13 294 40 398 70 23 6 47 12 52 13 6 2 46 15 89 30 278 96
510 260 680 480 83 107 115 160 175 285 104 221 160 456 178 745 14 223 6 969
-11 1061 -2 10 -7 44 -12 74 -4 30 -8 57 -9 60 -1 3 -5 25 -9 50 -73 419 -312
798 -641 1018 -210 140 -509 243 -805 277 -30 3 -68 9 -85 11 -32 6 -451 14
-457 9z m368 -844 c302 -60 505 -257 584 -568 22 -84 27 -112 37 -213 9 -88 9
-844 0 -949 -7 -78 -30 -206 -44 -241 -8 -20 -8 -20 -18 -55 -12 -43 -68 -148
-109 -203 -146 -197 -384 -298 -682 -287 -118 4 -155 10 -254 36 -278 75 -452
280 -527 623 -13 58 -16 162 -19 561 -3 511 0 566 41 727 86 341 301 530 660
581 50 7 277 -1 331 -12z"/>
<path d="M15347 21874 c-1 -1 -46 -5 -100 -8 -159 -11 -263 -25 -417 -57 -52
-11 -106 -22 -120 -25 -199 -38 -736 -246 -737 -286 0 -19 -13 -139 -18 -168
-2 -14 -7 -56 -10 -95 -3 -38 -8 -86 -10 -105 -3 -19 -7 -60 -10 -90 -3 -30
-7 -73 -10 -95 -9 -70 -13 -108 -20 -187 l-7 -76 133 57 c74 32 170 70 214 85
44 16 89 32 100 36 80 34 382 118 483 135 197 32 267 38 472 39 332 1 524 -40
679 -147 136 -94 232 -277 248 -473 l5 -71 -48 -7 c-27 -4 -60 -9 -74 -11 -14
-2 -63 -9 -110 -15 -47 -6 -96 -13 -110 -15 -14 -2 -44 -6 -67 -9 -24 -3 -60
-8 -82 -11 -21 -3 -54 -8 -72 -10 -19 -2 -68 -9 -109 -15 -41 -6 -93 -13 -115
-16 -571 -72 -886 -149 -1156 -284 -254 -127 -412 -293 -497 -525 -12 -33 -24
-69 -27 -80 -2 -11 -8 -35 -14 -53 -5 -18 -10 -35 -10 -37 0 -9 -13 -119 -17
-145 -4 -29 -5 -367 0 -420 15 -171 70 -357 142 -481 197 -335 548 -501 1064
-502 183 0 281 10 465 47 240 50 494 219 631 423 66 99 143 259 175 363 22 73
34 94 51 83 8 -4 6 -143 -7 -448 -3 -66 -7 -177 -10 -247 l-4 -128 515 0 515
0 -4 1353 c-2 743 -7 1370 -11 1392 -4 22 -11 72 -17 110 -38 249 -138 507
-259 667 -226 299 -579 476 -1060 532 -117 14 -199 18 -368 20 -100 1 -183 1
-185 0z m883 -2496 l0 -283 -30 -63 c-109 -230 -315 -400 -570 -470 -112 -31
-132 -33 -295 -38 -181 -4 -279 11 -381 61 -86 42 -144 99 -184 180 -40 80
-49 138 -46 270 4 178 54 279 176 360 99 65 266 117 455 140 28 4 91 13 140
20 141 22 167 25 210 31 45 5 88 12 125 19 14 3 41 7 60 9 89 11 141 18 215
30 44 8 90 14 103 15 l22 1 0 -282z"/>
<path d="M19287 21874 c-1 -1 -47 -4 -102 -8 -102 -7 -110 -8 -230 -25 -72
-11 -83 -13 -173 -32 -159 -32 -374 -122 -500 -207 -232 -158 -378 -403 -409
-689 -9 -84 -9 -294 0 -386 13 -127 52 -254 116 -373 47 -86 57 -99 151 -194
132 -132 304 -230 585 -332 95 -34 341 -106 415 -122 14 -3 54 -12 90 -21 36
-9 83 -20 105 -25 22 -4 92 -22 155 -39 63 -18 122 -33 130 -36 119 -30 312
-118 377 -171 82 -67 120 -175 109 -303 -26 -279 -319 -392 -934 -357 -74 4
-144 9 -155 11 -12 2 -44 6 -72 10 -301 37 -639 140 -1061 321 -7 3 -10 -4 -9
-18 2 -13 6 -50 10 -83 3 -33 8 -73 10 -90 2 -16 7 -61 10 -100 3 -38 8 -86
10 -105 10 -78 15 -128 19 -180 12 -134 34 -322 39 -325 3 -2 156 -61 222 -86
95 -35 411 -122 525 -144 22 -4 224 -35 265 -40 154 -20 580 -26 775 -12 211
15 473 68 635 126 290 106 507 290 620 526 43 89 88 234 99 320 3 22 8 60 11
85 13 99 6 358 -11 445 -3 11 -7 35 -10 54 -42 249 -210 465 -474 609 -170 93
-510 208 -790 267 -133 28 -185 41 -295 70 -71 20 -137 37 -145 39 -155 41
-345 126 -412 185 -130 115 -147 337 -36 462 47 53 181 110 313 134 130 22
480 23 650 1 17 -2 59 -7 95 -11 36 -4 74 -9 85 -11 11 -2 34 -7 50 -10 17 -3
50 -10 75 -15 25 -6 52 -12 60 -14 192 -43 431 -124 678 -232 13 -6 13 17 -3
127 -2 14 -6 54 -10 90 -4 36 -8 76 -10 90 -2 14 -7 57 -11 95 -3 39 -8 78
-10 88 -2 10 -6 48 -9 85 -3 37 -8 78 -10 92 -2 14 -7 54 -11 90 -4 45 -11 68
-22 75 -62 36 -369 156 -436 169 -6 2 -31 8 -56 15 -25 7 -53 15 -64 17 -10 2
-33 8 -50 13 -36 11 -174 39 -231 46 -22 2 -49 6 -60 9 -31 6 -121 15 -220 22
-79 6 -453 12 -458 8z"/>
<path d="M34499 21757 c0 -12 -1 -609 -1 -1327 0 -1143 3 -1422 16 -1530 14
-112 20 -147 38 -230 87 -411 282 -687 588 -836 171 -82 404 -128 650 -127 95
0 252 10 290 18 13 2 41 7 62 10 64 10 188 45 252 72 72 30 217 111 266 150
114 89 222 223 303 374 36 68 104 241 110 281 5 29 46 39 48 11 1 -10 1 -21 0
-25 -1 -7 -7 -185 -16 -428 -3 -85 -8 -203 -10 -262 l-5 -108 519 0 519 0 0
1990 0 1990 -519 0 -519 0 -1 -27 c0 -16 -1 -611 -1 -1323 l-1 -1294 -30 -66
c-126 -274 -372 -453 -674 -489 -76 -10 -262 -8 -308 3 -11 2 -41 9 -67 15
-174 40 -308 147 -381 304 -24 50 -58 164 -72 238 -14 74 -17 298 -17 1410
l-1 1227 -518 0 -519 0 -1 -21z"/>
<path d="M4567 20954 c-1 -1 -49 -5 -107 -8 -588 -33 -1133 -387 -1482 -961
-120 -198 -240 -509 -283 -735 -7 -34 -23 -127 -30 -170 -16 -102 -20 -291
-20 -950 l0 -725 185 1 c102 1 219 7 260 13 41 7 84 14 95 15 11 2 52 11 90
21 462 117 888 441 1161 885 166 271 296 642 330 943 3 29 8 63 11 77 9 37 13
1590 5 1591 -16 1 -214 4 -215 3z m-738 -1458 c93 -33 172 -112 207 -207 10
-26 16 -74 16 -118 0 -62 -6 -84 -32 -137 -58 -117 -175 -194 -300 -195 -32
-1 -63 1 -67 4 -5 3 -22 8 -37 11 -44 8 -111 52 -155 102 -132 151 -103 385
63 499 89 60 204 76 305 41z"/>
<path d="M23402 16938 c-81 -11 -179 -55 -221 -99 -59 -62 -84 -124 -87 -219
-4 -101 4 -137 49 -211 l34 -56 -143 2 -142 1 -1 -73 -1 -73 122 0 123 0 0
-605 c0 -599 0 -605 20 -606 47 -2 149 2 153 6 3 2 5 275 4 605 l0 600 279 0
279 0 2 23 c2 41 6 72 8 82 10 41 13 40 -290 40 l-291 0 -17 55 c-24 80 -21
203 6 257 66 129 281 166 531 92 35 -10 65 -19 68 -19 3 0 2 24 -1 53 -3 28
-5 59 -6 68 0 18 -75 49 -165 69 -68 15 -236 19 -313 8z"/>
<path d="M20420 15955 l0 -955 88 0 87 0 0 953 0 952 -87 3 -88 3 0 -956z"/>
<path d="M9650 16872 c-88 -7 -201 -36 -275 -72 -192 -93 -308 -279 -332 -534
-10 -114 -6 -649 6 -736 51 -360 290 -562 666 -561 108 0 148 4 240 27 170 41
318 164 386 321 60 137 64 178 64 623 0 356 -1 379 -22 460 -81 306 -298 466
-643 474 -30 0 -71 0 -90 -2z m195 -164 c186 -33 331 -179 362 -363 3 -16 9
-50 13 -75 12 -62 11 -631 -1 -705 -15 -95 -16 -97 -38 -155 -31 -80 -87 -156
-150 -201 -175 -125 -486 -114 -646 24 -70 60 -134 188 -152 303 -4 27 -8 207
-8 399 0 313 2 357 19 420 65 238 217 358 461 363 44 1 107 -4 140 -10z"/>
<path d="M14848 16875 c-2 -1 -39 -5 -83 -9 -258 -20 -426 -149 -462 -356 -6
-36 -6 -204 0 -230 16 -68 33 -110 57 -145 83 -121 200 -183 471 -250 263 -66
343 -98 414 -170 55 -54 76 -121 76 -237 1 -91 -23 -173 -64 -218 -42 -47
-122 -97 -172 -107 -5 -1 -32 -6 -60 -12 -27 -6 -111 -9 -185 -7 -180 5 -312
40 -473 124 l-75 39 4 -46 c3 -25 6 -62 8 -81 2 -19 5 -40 5 -46 2 -22 160
-89 296 -124 121 -32 377 -37 503 -10 117 25 211 71 274 135 52 53 101 144
113 210 13 71 15 199 4 270 -35 224 -173 325 -569 419 -333 78 -440 165 -447
357 -7 231 142 342 446 334 155 -5 307 -43 443 -111 37 -19 70 -34 74 -34 3 0
3 17 -1 38 -4 20 -9 56 -10 80 -4 52 -13 60 -119 102 -110 44 -211 68 -314 75
-48 4 -102 8 -119 9 -18 2 -34 2 -35 1z"/>
<path d="M27315 16840 c-2 -3 -3 -418 -3 -922 l0 -918 46 -1 c77 0 1005 -1
1037 0 l30 1 -1 70 c0 38 -4 73 -7 77 -4 3 -213 6 -466 6 l-459 0 2 356 1 356
444 0 c412 0 444 1 450 17 5 15 6 59 2 125 -1 9 -107 12 -423 12 -233 0 -435
0 -449 0 l-25 1 -1 334 0 334 454 -1 c249 0 457 3 461 7 4 4 7 39 7 77 0 63
-1 69 -20 69 -177 4 -1078 4 -1080 0z"/>
<path d="M11303 16420 c-105 -21 -166 -53 -239 -126 -46 -45 -68 -78 -91 -133
l-31 -73 5 159 5 159 -83 -2 c-46 -1 -86 -2 -89 -3 -3 0 -5 -316 -5 -701 0
-770 -5 -702 55 -702 11 0 43 0 70 1 l50 1 0 485 c0 461 1 487 20 537 60 156
197 252 376 261 140 8 260 -43 311 -131 63 -107 66 -134 66 -694 l0 -458 26
-1 c29 -1 119 -1 137 0 13 1 12 1005 0 1071 -35 186 -135 304 -293 344 -87 23
-198 25 -290 6z"/>
<path d="M12655 16429 c-220 -42 -373 -197 -411 -416 -3 -15 -7 -39 -10 -53
-3 -14 -5 -135 -5 -270 0 -213 3 -255 20 -323 68 -264 273 -399 602 -397 84 0
102 2 181 15 61 11 170 50 237 85 l58 31 10 80 c5 43 7 79 5 79 -2 0 -32 -15
-65 -34 -134 -72 -264 -105 -412 -104 -296 3 -453 143 -458 408 l-2 95 474 1
c400 1 475 3 481 15 5 8 7 93 6 189 -3 158 -5 183 -29 255 -38 116 -80 176
-169 246 -59 47 -100 66 -189 88 -80 19 -247 25 -324 10z m245 -142 c134 -24
247 -133 280 -267 6 -25 13 -92 16 -150 l6 -105 -398 0 -399 0 -1 75 c-1 255
98 403 298 444 54 11 145 12 198 3z"/>
<path d="M17901 16424 c-89 -15 -164 -51 -229 -110 -50 -44 -115 -144 -132
-202 -4 -16 -7 40 -6 133 l1 160 -85 0 -85 0 -1 -951 -1 -952 88 0 88 -1 -2
417 c-1 229 -1 406 1 392 2 -14 19 -57 38 -97 75 -156 228 -243 429 -244 277
0 440 123 511 387 16 60 19 106 19 349 0 307 -6 347 -64 470 -94 198 -310 293
-570 249z m217 -160 c128 -47 206 -148 232 -302 12 -75 16 -383 6 -483 -12
-113 -69 -230 -139 -283 -69 -53 -125 -70 -237 -73 -70 -2 -121 2 -153 12
-154 46 -258 160 -285 313 -5 29 -10 154 -10 278 1 232 4 258 47 342 41 81
158 181 232 198 13 3 40 9 59 14 55 12 196 3 248 -16z"/>
<path d="M19487 16434 c-1 -1 -22 -5 -47 -8 -68 -9 -106 -22 -168 -57 -99 -55
-151 -123 -209 -268 -7 -19 -9 -13 -7 30 6 122 6 260 0 267 -4 4 -43 7 -87 7
l-79 1 0 -45 c-1 -71 -1 -1792 -1 -1827 l1 -32 85 0 c73 0 85 2 86 16 2 33 -1
738 -4 774 -3 47 9 40 18 -10 7 -44 51 -124 92 -168 66 -72 173 -127 268 -139
58 -7 161 -8 191 -1 12 2 39 7 60 10 22 4 72 22 111 42 145 71 239 225 260
424 14 127 7 489 -11 575 -43 210 -166 348 -350 390 -56 13 -201 26 -209 19z
m164 -173 c117 -45 199 -154 224 -296 11 -66 13 -456 2 -515 -18 -99 -43 -154
-95 -212 -76 -84 -172 -121 -306 -117 -227 5 -379 132 -412 341 -3 24 -6 144
-6 268 0 241 4 265 57 355 51 87 152 163 254 190 70 19 215 12 282 -14z"/>
<path d="M24445 16423 c-203 -43 -344 -179 -397 -384 -19 -74 -22 -112 -22
-314 -1 -126 2 -252 6 -280 27 -184 124 -337 258 -409 149 -79 397 -94 572
-35 51 17 135 64 178 101 51 43 119 158 140 238 28 102 31 141 31 360 1 313
-27 429 -134 562 -56 70 -184 142 -287 163 -72 15 -274 14 -345 -2z m331 -154
c135 -44 216 -147 251 -316 15 -77 8 -460 -11 -548 -24 -110 -107 -214 -205
-257 -62 -27 -74 -29 -166 -33 -223 -10 -358 79 -421 276 -22 72 -28 488 -8
585 39 184 157 294 344 317 55 6 158 -5 216 -24z"/>
<path d="M30485 16433 c-16 -2 -55 -11 -85 -19 -171 -49 -282 -163 -338 -347
-23 -77 -25 -98 -27 -338 -3 -291 5 -359 60 -474 90 -188 281 -286 556 -286
100 1 153 7 234 27 118 31 252 97 252 126 0 7 3 42 7 76 4 35 3 62 -1 60 -4
-2 -40 -20 -79 -40 -131 -68 -208 -88 -359 -93 -176 -7 -305 34 -390 121 -73
75 -105 168 -105 308 l0 73 475 0 c261 0 478 2 481 6 4 4 7 82 6 174 0 251
-37 367 -152 484 -65 65 -155 113 -254 133 -63 13 -208 17 -281 9z m260 -158
c130 -37 218 -140 246 -290 12 -64 19 -214 10 -216 -3 -1 -183 -2 -398 -3
-387 -1 -393 -1 -394 19 -2 36 2 156 7 178 11 62 19 86 40 134 28 61 89 125
146 154 88 45 233 55 343 24z"/>
<path d="M34311 16429 c-112 -21 -230 -80 -293 -146 -75 -79 -132 -215 -146
-350 -9 -92 -8 -427 2 -486 23 -141 75 -253 150 -327 117 -115 239 -156 462
-153 328 3 529 185 561 508 9 85 9 401 0 470 -30 245 -163 409 -384 471 -65
19 -280 26 -352 13z m258 -144 c62 -12 159 -64 197 -108 43 -50 66 -93 89
-167 23 -73 30 -464 9 -569 -43 -227 -205 -346 -446 -327 -116 9 -182 37 -250
106 -101 102 -119 168 -123 445 -3 241 4 307 42 402 39 99 137 189 227 209 86
20 174 23 255 9z"/>
<path d="M36007 16434 c-1 -1 -22 -4 -48 -7 -88 -11 -180 -53 -259 -119 -42
-36 -99 -128 -121 -197 -4 -15 -6 45 -4 134 l4 160 -87 0 -87 0 -1 -702 -1
-703 44 -1 c23 -1 52 -1 63 -1 11 0 31 0 44 1 l23 1 0 496 c0 358 3 498 12
507 6 6 11 17 11 24 0 21 62 115 98 149 45 43 144 90 207 100 138 22 274 -8
340 -75 98 -96 105 -148 105 -734 l0 -472 77 2 c43 1 83 2 88 3 7 0 10 172 9
518 -1 488 -3 521 -22 594 -11 42 -30 94 -41 116 -56 110 -159 179 -298 198
-44 6 -152 12 -156 8z"/>
<path d="M37261 16424 c-135 -29 -263 -119 -324 -228 -33 -59 -66 -162 -74
-236 -4 -30 -7 -158 -6 -285 0 -178 4 -246 17 -299 33 -137 104 -241 211 -311
47 -30 165 -80 165 -70 0 2 11 0 24 -5 49 -18 247 -28 321 -15 17 3 46 7 65
10 83 14 262 86 287 117 16 19 29 158 15 158 -6 0 -13 -4 -16 -9 -11 -17 -155
-81 -228 -101 -40 -11 -120 -23 -178 -26 -174 -10 -313 31 -398 116 -75 75
-107 165 -111 306 l-2 81 475 0 c262 0 479 3 483 6 12 13 10 292 -4 372 -38
220 -183 375 -393 419 -83 17 -246 17 -329 0z m308 -150 c125 -36 210 -133
242 -274 16 -70 23 -221 11 -229 -6 -3 -185 -6 -399 -6 l-388 0 0 100 c2 243
102 385 298 420 85 15 160 11 236 -11z"/>
<path d="M26158 16425 c-2 -2 -23 -5 -48 -8 -56 -7 -107 -25 -142 -49 -14 -10
-29 -18 -33 -18 -3 0 -28 -20 -54 -45 -53 -50 -124 -167 -141 -232 -6 -24 -12
-43 -14 -43 -1 0 -1 85 1 188 l4 188 -85 -1 -86 0 0 -702 0 -703 45 -1 c25 -1
54 -1 65 -1 11 0 31 0 44 1 l23 1 0 455 0 455 38 77 c66 135 177 225 312 256
64 15 172 14 233 -3 45 -12 63 -6 56 18 -3 10 -6 43 -7 76 -2 57 -4 59 -37 73
-28 12 -165 25 -174 18z"/>
<path d="M32063 16418 c-177 -27 -318 -158 -379 -353 -11 -35 -12 -15 -11 150
l2 190 -75 1 c-41 0 -79 -1 -85 -3 -10 -3 -13 -1389 -3 -1399 6 -5 52 -7 123
-5 l50 1 0 458 0 457 28 59 c98 210 310 317 532 270 78 -16 85 -17 79 -1 -2 7
-6 37 -8 67 -2 30 -4 63 -5 72 -2 34 -135 53 -248 36z"/>
<path d="M15832 15876 c4 -460 6 -539 21 -588 55 -189 168 -291 347 -313 191
-24 356 22 464 130 46 46 106 146 106 175 0 6 4 10 8 10 5 0 7 -65 5 -145 l-4
-145 33 -1 c18 0 57 -1 85 -2 29 -1 54 3 56 8 3 9 1 1383 -2 1395 0 3 -38 6
-83 5 l-83 0 -5 -500 -5 -500 -30 -59 c-40 -78 -115 -153 -194 -189 -113 -53
-303 -49 -391 9 -56 37 -65 46 -94 96 -56 96 -58 122 -58 956 0 100 -3 183 -6
183 -4 1 -44 2 -90 3 l-83 2 3 -530z"/>
<path d="M20880 16397 c0 -7 7 -27 94 -272 26 -71 62 -175 81 -230 19 -55 39
-109 44 -120 5 -11 19 -49 31 -85 11 -36 25 -74 30 -85 4 -11 50 -138 101
-282 l92 -263 53 0 c38 0 52 -4 49 -12 -2 -7 -38 -110 -81 -228 -42 -118 -84
-238 -94 -267 l-19 -52 92 2 92 2 165 460 c91 253 217 602 279 775 62 173 115
322 118 330 4 8 7 17 8 20 1 3 4 12 8 20 61 158 102 286 93 291 -6 3 -47 5
-91 5 l-80 -1 -58 -165 c-32 -91 -77 -214 -99 -275 -22 -60 -41 -117 -43 -125
-2 -8 -56 -159 -119 -335 -79 -220 -119 -321 -130 -323 -9 -2 -16 -1 -16 1 0
6 -398 1166 -415 1208 -4 12 -23 15 -95 15 -50 -1 -90 -4 -90 -9z"/>
<path d="M28616 16402 c-4 -3 9 -47 48 -157 53 -154 331 -968 373 -1095 24
-74 49 -139 54 -144 8 -9 286 -13 294 -4 5 5 41 110 276 808 72 212 134 394
139 405 19 44 59 178 55 184 -2 4 -43 7 -91 6 l-86 0 -212 -640 c-151 -454
-217 -641 -228 -643 -12 -2 -60 133 -228 640 l-213 643 -89 0 c-49 0 -91 -1
-92 -3z"/>
<path d="M32450 16399 c0 -7 53 -161 110 -319 23 -63 45 -126 50 -140 4 -14
64 -182 133 -375 69 -192 137 -385 152 -427 l28 -78 54 0 c46 0 54 -3 49 -16
-3 -8 -46 -126 -95 -262 -49 -136 -92 -255 -96 -265 -7 -16 1 -17 84 -15 51 1
94 5 97 9 3 5 24 64 48 131 24 68 84 236 134 373 50 138 120 333 157 435 36
102 74 205 83 230 9 25 17 47 18 50 0 3 4 12 7 20 7 17 68 186 128 355 29 83
108 300 109 300 2 1 -169 -3 -177 -4 -6 0 -22 -34 -36 -73 -14 -40 -48 -138
-77 -218 -28 -80 -79 -221 -112 -315 -120 -338 -167 -471 -191 -540 -15 -42
-32 -71 -41 -73 -9 -2 -16 -1 -16 1 0 4 -88 261 -250 732 -29 83 -74 215 -101
295 -28 80 -54 156 -60 170 -9 24 -13 25 -99 25 -50 1 -90 -2 -90 -6z"/>
</g>
</svg>
