<svg width="80" height="80" viewBox="0 0 80 80" fill="none" xmlns="http://www.w3.org/2000/svg">
<path d="M69.9999 26.2754L70 53.7247C70 55.5405 69.0155 57.2136 67.4282 58.0955L42.4282 71.9844C40.9181 72.8233 39.0819 72.8233 37.5718 71.9844L12.5718 58.0955C10.9845 57.2136 10 55.5405 10 53.7247L9.99994 26.2754C9.99994 24.4596 10.9844 22.7864 12.5717 21.9046L37.5718 8.01571C39.0819 7.17676 40.9181 7.17676 42.4282 8.01572L67.4282 21.9046C69.0155 22.7864 69.9999 24.4595 69.9999 26.2754Z" stroke="white" stroke-width="3" stroke-linecap="round" stroke-linejoin="round"/>
<path d="M11.7611 24.3119L37.5715 38.651C39.0816 39.49 40.9178 39.49 42.4279 38.651L68.333 24.2593" stroke="white" stroke-width="3" stroke-linecap="round" stroke-linejoin="round"/>
<path d="M40 70V40" stroke="white" stroke-width="3" stroke-linecap="round" stroke-linejoin="round"/>
<path d="M37.4282 38.5713L17.4282 27.4602C14.0956 25.6087 10 28.0185 10 31.8309V53.7247C10 55.5405 10.9845 57.2136 12.5718 58.0955L32.5718 69.2066C35.9044 71.0581 40 68.6482 40 64.8358V42.9421C40 41.1262 39.0155 39.4531 37.4282 38.5713Z" fill="white" stroke="white" stroke-width="3" stroke-linejoin="round"/>
</svg>
