<svg width="300" height="300" viewBox="0 0 300 300" fill="none" xmlns="http://www.w3.org/2000/svg">
<path d="M262.5 90.442L262.5 209.558C262.5 211.374 261.516 213.047 259.928 213.929L152.428 273.651C150.918 274.49 149.082 274.49 147.572 273.651L40.0718 213.929C38.4845 213.047 37.5 211.374 37.5 209.558L37.4998 90.442C37.4998 88.6261 38.4842 86.953 40.0716 86.0712L147.572 26.3489C149.082 25.51 150.918 25.51 152.428 26.349L259.928 86.0712C261.515 86.953 262.5 88.6261 262.5 90.442Z" stroke="#168965" stroke-width="9" stroke-linecap="round" stroke-linejoin="round"/>
<path d="M44.1054 91.1696L147.572 148.651C149.082 149.49 150.918 149.49 152.428 148.651L256.25 90.9722" stroke="#168965" stroke-width="9" stroke-linecap="round" stroke-linejoin="round"/>
<path d="M150 262.5V150" stroke="#168965" stroke-width="9" stroke-linecap="round" stroke-linejoin="round"/>
<path d="M147.428 148.571L44.9282 91.6268C41.5956 89.7753 37.5 92.1852 37.5 95.9976V209.558C37.5 211.374 38.4845 213.047 40.0718 213.929L142.572 270.873C145.904 272.725 150 270.315 150 266.502V152.942C150 151.126 149.016 149.453 147.428 148.571Z" fill="#168965" stroke="#168965" stroke-width="9" stroke-linejoin="round"/>
</svg>
